PathFileType        4      (X/Y/Z)      C:\Users\pc\Desktop\IMUTRC\Sujet_07\Sujet_07_velo_100.trc         
DataRate	CameraRate	NumFrames	NumMarkers	Units	OrigDataRate	OrigDataStartFrame	OrigNumFrames
60.0	60.0	4	64	mm	60.0	817	933
Frame#	Time	pHipOrigin			pRightASI			pLeftASI			pRightCSI			pLeftCSI			pRightIschialTub			pLeftIschialTub			pSacrum			pL5SpinalProcess			pL3SpinalProcess			pT12SpinalProcess			pIJ			pT4SpinalProcess			pT8SpinalProcess			pPX			pC7SpinalProcess			pTopOfHead			pRightAuricularis			pLeftAuricularis			pBackOfHead			pRightAcromion			pLeftAcromion			pRightArmLatEpicondyle			pRightArmMedEpicondyle			pLeftArmLatEpicondyle			pLeftArmMedEpicondyle			pRightUlnarStyloid			pRightRadialStyloid			pRightOlecranon			pLeftUlnarStyloid			pLeftRadialStyloid			pLeftOlecranon			pRightTopOfHand			pRightPinky			pRightBallHand			pLeftTopOfHand			pLeftPinky			pLeftBallHand			pRightGreaterTrochanter			pRightKneeLatEpicondyle			pRightKneeMedEpicondyle			pRightPatella			pLeftGreaterTrochanter			pLeftKneeLatEpicondyle			pLeftKneeMedEpicondyle			pLeftPatella			pRightTibialTub			pRightLatMalleolus			pRightMedMalleolus			pLeftTibialTub			pLeftLatMalleolus			pLeftMedMalleolus			pRightHeelFoot			pRightFirstMetatarsal			pRightFifthMetatarsal			pRightPivotFoot			pRightHeelCenter			pRightToe			pLeftHeelFoot			pLeftFirstMetatarsal			pLeftFifthMetatarsal			pLeftPivotFoot			pLeftHeelCenter			pLeftToe			
		X1	Y1	Z1	X2	Y2	Z2	X3	Y3	Z3	X4	Y4	Z4	X5	Y5	Z5	X6	Y6	Z6	X7	Y7	Z7	X8	Y8	Z8	X9	Y9	Z9	X10	Y10	Z10	X11	Y11	Z11	X12	Y12	Z12	X13	Y13	Z13	X14	Y14	Z14	X15	Y15	Z15	X16	Y16	Z16	X17	Y17	Z17	X18	Y18	Z18	X19	Y19	Z19	X20	Y20	Z20	X21	Y21	Z21	X22	Y22	Z22	X23	Y23	Z23	X24	Y24	Z24	X25	Y25	Z25	X26	Y26	Z26	X27	Y27	Z27	X28	Y28	Z28	X29	Y29	Z29	X30	Y30	Z30	X31	Y31	Z31	X32	Y32	Z32	X33	Y33	Z33	X34	Y34	Z34	X35	Y35	Z35	X36	Y36	Z36	X37	Y37	Z37	X38	Y38	Z38	X39	Y39	Z39	X40	Y40	Z40	X41	Y41	Z41	X42	Y42	Z42	X43	Y43	Z43	X44	Y44	Z44	X45	Y45	Z45	X46	Y46	Z46	X47	Y47	Z47	X48	Y48	Z48	X49	Y49	Z49	X50	Y50	Z50	X51	Y51	Z51	X52	Y52	Z52	X53	Y53	Z53	X54	Y54	Z54	X55	Y55	Z55	X56	Y56	Z56	X57	Y57	Z57	X58	Y58	Z58	X59	Y59	Z59	X60	Y60	Z60	X61	Y61	Z61	X62	Y62	Z62	X63	Y63	Z63	X64	Y64	Z64	
817	13.6	0.0	1249.97763	7.653905517926474E-14	104.73107537798415	1335.44809	133.0069963140057	102.26861388829926	1305.52229	-149.65913527417842	86.81858814392305	1414.75518	99.4282542933284	84.84226313726512	1390.17592	-133.1392103828712	-75.80478196034875	1222.42808	62.386713812004835	-76.80653248692023	1210.17558	-53.94774337946452	-57.05859872416513	1296.2401	-4.389628001061179	20.566820208496644	1380.89373	-12.305897551250448	111.13257042765298	1464.21072	-26.298818356421396	197.7847067248072	1535.94353	-40.49338100747578	460.90273554835693	1488.41868	-75.33527531723641	380.21571716311985	1623.86449	-70.73003996276155	292.90787429379446	1593.0476	-56.14234021384995	343.49844621555326	1441.33939	-55.40128116630365	436.850289322191	1642.35462	-78.67529640719859	710.4367706801397	1611.38922	-79.52028238316161	605.2011927819989	1599.73078	-12.346154699708977	611.600360680559	1610.86941	-156.647898626179	604.8865103008511	1661.95862	-80.2665886541093	445.79958914697795	1573.74063	110.3294016041032	405.46264036690513	1592.00799	-259.11273368650745	473.0960940480594	1295.94307	111.16936824637709	440.599705871319	1290.89355	55.6228636309722	413.07475931064585	1300.76981	-274.52503045032387	376.8724327602133	1293.04702	-221.77128151277492	570.9172851269427	1058.24459	52.23335524084789	618.013326023955	1084.8288	49.67065957188078	432.7127463486408	1284.28463	87.25381824148998	475.83637847843	1046.58616	-241.54790361421473	525.1768601650664	1065.22481	-253.7901647653908	370.358427568568	1292.00742	-244.05311356007795	753.9213479040075	1016.73461	156.00440051944727	677.1565554219744	998.46725	103.02396133081001	626.7904283254218	1040.57129	58.082192442510724	623.3829635108282	984.80386	-386.7593453736102	565.4009911995872	975.00186	-312.0247434074888	529.7728317421247	1023.4178	-259.9684410469982	20.749491648931894	1234.30929	174.209746232824	382.3094664018922	976.93256	158.21817997737605	391.80673653451345	984.06128	73.15444557446955	412.37221058075517	1021.33858	119.06879964463975	7.696052721576379	1216.63599	-176.99363433149898	237.90846716973073	837.77388	-202.36617268880593	250.82217248072845	832.1303	-117.653966401426	283.71399113879255	862.65016	-161.25790747053503	434.1095370757464	940.47209	121.0721857346019	278.52215410173005	561.7585	183.5273380622751	282.26622212452986	555.14957	118.37894201979188	273.9145159302959	780.52129	-167.60159852190714	-6.0186496162903325	475.24843	-170.76385307163022	7.06990677489523	469.67911	-106.70105773889397	235.7920795999051	477.99596	148.8249181106394	404.83221712630063	468.71377	141.03937139649184	390.604695712072	474.50586	218.99908135171015	420.07266094719427	470.57021	183.10760836880485	275.85427100794203	481.11478	155.92046712937005	510.7769292552515	465.07515	200.06294719589022	-80.72056679709999	432.32756	-122.31709709166543	53.80355901873061	329.1838	-120.96283784847215	35.67991556339063	334.30757	-198.13632656556015	62.10712960474521	317.89665	-163.41440398768393	-46.9590332308773	411.38692	-131.63526856980522	131.24857517479379	259.97574	-183.51724062376616	
818	13.617	0.0	1249.97763	7.653905517926474E-14	105.5896503828713	1335.07681	132.55950078343244	100.30950125498164	1307.45299	-150.27575265552227	86.7615565766391	1414.5324	99.82405586549953	82.46479155043255	1391.80959	-132.8826888009258	-74.90446195057444	1221.38847	62.90651381200483	-77.10356248692023	1210.10132	-53.43327232809233	-57.449781631195066	1295.86881	-3.415039331032839	19.62403258984049	1381.19076	-11.564041494991113	109.6481307111396	1465.02755	-25.95543334664711	195.8600596171757	1537.20591	-40.575634430417516	458.8647442498981	1490.72067	-76.85489084292252	377.789207431945	1625.86944	-71.87374182330645	290.61727113479077	1594.75552	-56.778859162477744	341.8164670149517	1443.19582	-56.20088773358765	434.342236451561	1644.58235	-80.12332140719859	707.9539483254217	1613.46843	-82.49714791862199	603.1214564786529	1601.66147	-14.833065755968294	608.7190722793559	1613.46843	-159.08312072403626	602.4553855647891	1664.18635	-82.44189709171248	444.0088844206902	1576.48816	109.12405317138716	402.0688351051571	1594.01294	-260.2146905421653	471.4412908939429	1298.31931	110.4712113858322	439.80348272208954	1293.34405	54.477202579600025	411.3403672079015	1302.55199	-273.89721520812446	374.7793640852978	1294.90346	-221.2648002240904	570.0242445963694	1060.76935	52.14648681301896	617.1103365398668	1087.42782	49.74954323702199	431.47364267372524	1286.66087	86.28118876228892	474.62907585488665	1048.59111	-241.38749413012653	523.9324275415231	1067.37828	-253.56544423481762	368.4954183728536	1293.71534	-243.4995669781325	752.8227608061502	1019.63066	156.5705691894756	676.2064883241171	1001.14053	103.33288581489825	625.9517462275645	1043.09605	58.19819244739785	621.8640669288827	987.1801	-386.95031932223804	564.0107080503578	977.15533	-312.14146235611673	528.4369106858653	1025.57127	-259.88227790265597	19.054899020501423	1231.26473	174.17456676339722	367.8218172398806	956.80876	160.14316440821284	379.13234948013337	964.75432	75.35460790744912	400.74400272208953	1000.24943	122.1302064568204	7.144456670204207	1218.26965	-177.226361945268	256.15464605803004	851.66004	-206.4941815673309	270.07277689960097	846.38775	-121.88803133132318	301.01276240354855	878.6898	-165.67565820960488	422.8254381705957	922.72453	123.38905835595527	285.96495355430545	535.84261	179.24991125986878	291.2378707728197	530.12477	114.12675073329736	288.61570508253317	793.96191	-171.97564506526265	-9.578920914749133	506.51087	-169.64680229397038	4.091082048607554	500.27323	-105.84852196612125	243.8435066711366	452.67413	144.38441734983095	412.86373396999414	442.79788	136.9303561613695	398.50760778330346	448.36719	214.81581611658777	428.0398890649109	444.5058	178.96146447342844	283.86855941891946	455.57018	151.54427241504658	518.7613808056841	438.49094	196.18399143996893	-85.58690863101918	466.63455	-121.61112578831947	44.409645355779375	357.99573	-119.09806210232514	26.95894190532654	363.49079	-196.39751709832333	52.51034750907795	346.11452	-161.4952698088209	-52.73831216265371	444.28303	-130.6846838288561	119.21728126475594	285.29757	-180.94578829078657	
819	13.633	0.0	1249.97763	7.653905517926474E-14	106.68823748072852	1334.557	131.9933321134041	97.92740600300787	1309.60646	-151.0508426506351	86.87027710232519	1414.23537	100.22980639118562	79.6543747311748	1393.66603	-132.61888407952523	-73.88546380134505	1220.27461	63.66631724472085	-77.47485248692023	1210.02706	-52.790179183750084	-57.78660610550897	1295.49752	-2.2375822282884728	18.579812584953338	1381.41353	-10.794999392246746	107.89651517567921	1465.91864	-25.594806243902728	193.641038323604	1538.69106	-40.74209680687422	456.60664742575324	1493.54246	-78.58733241509358	374.811101649398	1628.24568	-73.25017129762038	288.0051127433619	1596.68622	-57.60102811110555	339.914377288664	1445.42355	-57.21331168710259	431.3840235760439	1647.25562	-81.83124640719858	705.0381993985325	1616.21596	-85.4667426351353	600.4158641239349	1604.18623	-17.42408233302659	605.5162373059816	1616.6615	-161.70398782189343	599.601278210071	1667.08239	-84.77567814308468	441.9708931222315	1580.05252	107.6044376457011	398.39060461098387	1596.46344	-261.56660844430803	469.5663785538862	1301.21536	109.5602148185482	439.40573061934515	1296.53713	52.7898894303706	409.22740196570203	1304.55695	-273.05925205400786	372.1618854054951	1296.98267	-220.8896141629439	569.0125309263411	1063.73965	51.81960629222008	616.1258039163235	1090.39812	49.524103762708116	430.2915619058397	1289.63118	84.91275271091673	472.95170665917226	1050.81884	-241.1554854600982	522.1907559595777	1069.82878	-253.37056056478923	366.12522626522207	1295.7203	-242.8101138240159	751.568379229092	1023.04651	156.96104181301894	675.1278027935439	1004.3336	103.56756395924043	624.9943946505063	1046.14061	58.07419401956901	619.627817202595	989.92763	-387.38396117789574	562.0316938497562	979.68009	-312.4265892117744	526.6408770109499	1027.87325	-259.89027632559765	17.25886534558593	1228.29442	174.1665683404555	350.0464188674931	934.53149	161.97061751396512	363.1973942618624	942.92259	77.55867996182923	386.02097013224903	976.48701	125.20546694391653	6.36280113963096	1220.12609	-177.50615485229793	274.9749783790453	868.07096	-211.31963336266014	290.03611445792865	863.02145	-126.91102627099468	318.68283232855856	897.32845	-170.73649709301702	408.36230558075516	902.15519	126.01415883816424	288.9107419821343	508.44156	173.40507603452073	296.10830130828003	503.91185	108.36417759114504	304.38829162588866	809.85303	-177.0173063251315	-9.390606440435235	539.62974	-170.56703253128268	4.722272048607557	532.72379	-106.94177511535065	246.62620748030932	426.68398	137.93095816608079	415.549631058077	414.35723	131.5356859409086	400.6962485924762	419.77803	209.39129903558197	430.3843330135387	415.61961	173.71264843890765	286.56706493483125	428.98597	145.3851837569825	520.9374081870279	408.11959	191.5239014568203	-86.53892625944965	503.16928	-122.9324828861767	39.05600985671899	389.48094	-118.5876934127482	22.416811117892394	395.12452	-196.10457579986456	46.98101096353253	377.00567	-160.82909797978888	-54.54891845622536	479.40686	-131.55854173588602	111.43643075103411	313.51545	-179.35015987492196	
820	13.65	0.0	1249.97763	7.653905517926474E-14	108.30396010427184	1333.81443	131.12551843848863	95.352377611579	1311.4629	-151.93732264574794	87.68906629315246	1413.64131	100.44530191198456	76.98253761865614	1395.22544	-132.44656645109478	-72.8021596056306	1219.38352	64.46325933769093	-78.12326591963627	1210.17558	-51.96411417397578	-58.03194714710685	1295.27475	-0.9215590790590713	17.802772059267248	1381.6363	-10.043185722218404	106.6892075521359	1466.5127	-25.43438809956049	192.00347726245752	1539.65641	-41.1730778484721	454.85840664809336	1495.54741	-81.05435056432304	372.600078778768	1629.95361	-75.21266734899255	285.98435853787316	1598.09711	-58.85345915759059	338.5121996553464	1447.05722	-58.79456878495981	429.06428883998194	1649.26057	-84.1994879842568	702.6966125646131	1617.92388	-89.13377526845296	598.3215688621867	1605.89416	-20.776856533628163	602.9147504720623	1618.88923	-164.9208604503239	597.4227703345539	1669.01309	-87.83409181800015	440.86574548891383	1582.57728	105.50870949647168	395.0465427770647	1598.02285	-263.497303444308	468.21127487408353	1303.22031	107.74890324148994	438.8820208979446	1298.6906	50.42964127625404	407.3571132907865	1305.81932	-272.93863704423353	369.97004515840854	1298.39357	-220.95463549291563	568.0677927771117	1065.67035	50.93118076653398	615.1439407670941	1092.25456	48.699980623253005	429.2878553190071	1291.78464	82.7898435152023	471.36849903074176	1052.30399	-241.38358940872598	520.5704096708932	1071.38818	-253.534358466932	364.0991381111055	1296.98267	-242.8651862004726	750.2052771263476	1025.49701	156.94576391087614	673.9775267372846	1006.56133	103.33218053141158	623.9654525477619	1048.14557	57.480134019569	617.7601930019935	991.5613	-387.8620211730086	560.2283806956397	981.2395	-312.8675192068874	525.0304883360344	1029.43266	-260.21982132071054	15.932893242841558	1225.99244	174.0869793918277	330.0447110620789	912.25422	163.19867167108958	344.7145916986476	920.42255	78.97771306758149	368.93573519746474	952.20479	127.17414191021372	5.2768274696026225	1221.98253	-177.70441328012683	292.4222646438013	885.37298	-215.9946196274161	308.5249649135119	880.76901	-131.7563746336079	334.9155314905702	916.78393	-175.68399678560192	391.1186066924559	881.36307	128.40582142311757	287.39326962741615	482.45142	168.75617525197373	296.2111802422464	478.96131	103.87906605048677	319.450826824611	826.93227	-181.8687025801132	-6.159166193348611	571.18921	-172.30265122085962	8.156585728410192	563.6892	-108.73176089789767	243.68665592498957	402.3275	132.03229081136266	412.2215524097873	385.54529	126.01292725133166	397.3310536044404	390.44629	203.932847732236	427.0191293652489	385.91658	168.2541921355617	283.7833078587126	403.51562	139.66221244874944	517.166462673306	375.89181	186.17417067916048	-84.29930177536143	536.36241	-125.32648628249271	38.49979380045966	419.62951	-119.85201894332144	22.49640006652021	425.49586	-197.43054790260894	46.387664907273205	406.93147	-162.02911246387708	-52.82642583756921	511.85741	-133.65088646706087	109.47730945746245	341.73333	-179.96678225626582	
